# xmcd
#
# Track frame offsets: 
#        182
#        14452
#        27120
#        40797
#        54415
#        67757
#        81045
#        94740
#        110315
#        123540
#        140187
#        150277
#        163737
#        180292
#        197455
#        211497
#        223430
#        233280
#
# Disc length: 3259 seconds
#
# Revision: 5
# Processed by: cddbd v1.5.2PL0 Copyright (c) Steve Scherf et al.
# Submitted via: ExactAudioCopyFreeDBPlugin 1.0
#
DISCID=e60cb912
DTITLE=Joe Tex - "I Believe I'm Gonna Make It!":  The Best of Joe Tex
DYEAR=1988
DGENRE=Soul
TTITLE0=Hold What You've Got
TTITLE1=S.Y.S.L.J.F.M. (The Letter Song)
TTITLE2=One Monkey Don't Stop No Show
TTITLE3=I Believe I'm Gonna Make It
TTITLE4=Papa Was Too
TTITLE5=Love You Save (May Be Your Own)
TTITLE6=I've Got to Do a Little Bit Better
TTITLE7=Buying a Book
TTITLE8=Show Me
TTITLE9=You're Right Ray Charles
TTITLE10=You Got What it Takes
TTITLE11=Don't Make Your Children Pay
TTITLE12=Grandma Mary
TTITLE13=Anything You Wanna
TTITLE14=Skinny Legs and All
TTITLE15=Sweet Woman Like You
TTITLE16=I Want To (Do Everything For You)
TTITLE17=I Gotcha
EXTD=
EXTT0=
EXTT1=
EXTT2=
EXTT3=
EXTT4=
EXTT5=
EXTT6=
EXTT7=
EXTT8=
EXTT9=
EXTT10=
EXTT11=
EXTT12=
EXTT13=
EXTT14=
EXTT15=
EXTT16=
EXTT17=
PLAYORDER=
